<?xml version="1.0" encoding="UTF-8"?>
<svg version="1.1" xmlns="http://www.w3.org/2000/svg" width="512" height="512">
<path d="M0 0 C1.46805806 -0.00302228 2.93611454 -0.00691215 4.40416825 -0.01159257 C8.42996478 -0.02187147 12.45567224 -0.01969102 16.48147607 -0.01541197 C20.82649715 -0.01294456 25.17149679 -0.02195911 29.51651001 -0.02944946 C38.02568288 -0.04219807 46.5348242 -0.04398995 55.04400502 -0.0416492 C61.96071767 -0.03986605 68.87742073 -0.04161561 75.79413223 -0.04587364 C76.7786139 -0.04646883 77.76309556 -0.04706402 78.77741001 -0.04767724 C80.77739969 -0.048889 82.77738937 -0.05010313 84.77737905 -0.05131962 C103.5329364 -0.0621958 122.28847577 -0.06003231 141.04403414 -0.05393478 C158.19969291 -0.04876562 175.3552949 -0.0600209 192.51094244 -0.07903299 C210.12923623 -0.09840802 227.74750314 -0.10666798 245.36580765 -0.10290974 C255.25598464 -0.10099718 265.14611329 -0.10349063 275.03628159 -0.11762428 C283.45593655 -0.12953477 291.87551343 -0.13094669 300.29516946 -0.11883412 C304.58994896 -0.1129431 308.88458562 -0.11185216 313.17935562 -0.12383652 C317.11363789 -0.13468726 321.04765792 -0.13160167 324.98192789 -0.11757483 C326.40246144 -0.11492567 327.8230155 -0.11730136 329.24352895 -0.1253107 C341.6464082 -0.19036865 350.62616064 1.41469734 359.7036438 10.26069641 C368.23800825 20.38814223 369.00183955 28.67693114 368.96434021 41.55705261 C368.96736249 43.02511067 368.97125236 44.49316715 368.97593278 45.96122086 C368.98621168 49.98701739 368.98403123 54.01272485 368.97975218 58.03852868 C368.97728477 62.38354976 368.98629932 66.7285494 368.99378967 71.07356262 C369.00653828 79.5827355 369.00833016 88.09187682 369.00598941 96.60105763 C369.00420626 103.51777028 369.00595582 110.43447335 369.01021385 117.35118484 C369.01080904 118.33566651 369.01140423 119.32014818 369.01201745 120.33446262 C369.01322921 122.3344523 369.01444334 124.33444198 369.01565983 126.33443166 C369.02653601 145.08998901 369.02437252 163.84552839 369.01827499 182.60108675 C369.01310583 199.75674552 369.02436111 216.91234752 369.0433732 234.06799506 C369.06274823 251.68628884 369.07100819 269.30455576 369.06724995 286.92286026 C369.06533739 296.81303725 369.06783084 306.7031659 369.08196449 316.5933342 C369.09387498 325.01298916 369.0952869 333.43256604 369.08317433 341.85222207 C369.07728331 346.14700157 369.07619237 350.44163823 369.08817673 354.73640823 C369.09902747 358.67069051 369.09594188 362.60471054 369.08191504 366.5389805 C369.07926588 367.95951406 369.08164157 369.38006811 369.08965091 370.80058156 C369.15470886 383.20346081 367.54964287 392.18321325 358.7036438 401.26069641 C348.57619798 409.79506086 340.28740907 410.55889216 327.4072876 410.52139282 C325.93922954 410.5244151 324.47117306 410.52830497 323.00311935 410.53298539 C318.97732282 410.54326429 314.95161536 410.54108384 310.92581153 410.5368048 C306.58079045 410.53433738 302.23579081 410.54335194 297.89077759 410.55084229 C289.38160471 410.56359089 280.87246339 410.56538277 272.36328258 410.56304202 C265.44656993 410.56125888 258.52986686 410.56300843 251.61315536 410.56726646 C250.13643287 410.56815925 250.13643287 410.56815925 248.62987759 410.56907007 C246.62988791 410.57028182 244.62989823 410.57149596 242.62990855 410.57271244 C223.8743512 410.58358862 205.11881182 410.58142513 186.36325346 410.5753276 C169.20759469 410.57015844 152.05199269 410.58141372 134.89634515 410.60042582 C117.27805137 410.61980084 99.65978445 410.6280608 82.04147995 410.62430257 C72.15130296 410.62239 62.26117431 410.62488345 52.37100601 410.63901711 C43.95135105 410.65092759 35.53177417 410.65233951 27.11211814 410.64022694 C22.81733864 410.63433592 18.52270198 410.63324499 14.22793198 410.64522934 C10.2936497 410.65608008 6.35962967 410.65299449 2.42535971 410.63896766 C1.00482615 410.63631849 -0.4157279 410.63869418 -1.83624135 410.64670352 C-14.2391206 410.71176147 -23.21887304 409.10669548 -32.2963562 400.26069641 C-40.83072065 390.13325059 -41.59455195 381.84446168 -41.55705261 368.96434021 C-41.56007489 367.49628215 -41.56396476 366.02822567 -41.56864518 364.56017196 C-41.57892408 360.53437543 -41.57674363 356.50866797 -41.57246459 352.48286414 C-41.56999717 348.13784306 -41.57901173 343.79284342 -41.58650208 339.4478302 C-41.59925068 330.93865733 -41.60104256 322.42951601 -41.59870181 313.92033519 C-41.59691867 307.00362254 -41.59866822 300.08691948 -41.60292625 293.17020798 C-41.60381904 291.69348548 -41.60381904 291.69348548 -41.60472986 290.1869302 C-41.60594161 288.18694052 -41.60715575 286.18695084 -41.60837223 284.18696116 C-41.61924841 265.43140381 -41.61708492 246.67586444 -41.61098739 227.92030607 C-41.60581823 210.7646473 -41.61707351 193.60904531 -41.63608561 176.45339777 C-41.65546063 158.83510398 -41.66372059 141.21683707 -41.65996236 123.59853256 C-41.65804979 113.70835557 -41.66054324 103.81822692 -41.6746769 93.92805862 C-41.68658738 85.50840366 -41.6879993 77.08882678 -41.67588673 68.66917075 C-41.66999571 64.37439125 -41.66890478 60.07975459 -41.68088913 55.78498459 C-41.69173987 51.85070232 -41.68865428 47.91668229 -41.67462745 43.98241232 C-41.67197828 42.56187877 -41.67435397 41.14132471 -41.68236331 39.72081126 C-41.74742126 27.31793201 -40.14235527 18.33817957 -31.2963562 9.26069641 C-21.16891038 0.72633196 -12.88012147 -0.03749934 0 0 Z M53.8911438 107.51069641 C47.21773665 116.47167811 44.55955562 127.08632895 44.54251099 138.07344055 C44.53754608 138.84493439 44.53258118 139.61642822 44.52746582 140.41130066 C44.51289894 142.95616054 44.50604948 145.50095798 44.5005188 148.04585266 C44.49769142 148.91992704 44.49486404 149.79400143 44.49195099 150.69456291 C44.47697624 155.32492753 44.46773742 159.95526115 44.46340942 164.58564758 C44.45794366 169.34086314 44.43395094 174.09578963 44.40543747 178.85091496 C44.38669476 182.53065787 44.38159923 186.21033296 44.38007355 189.89011955 C44.37707 191.64139311 44.36912039 193.39266614 44.35588837 195.14389229 C44.22639193 213.60825898 47.23189326 228.17476745 60.34817505 242.03804016 C70.65476139 251.76349228 83.49174732 256.54560887 97.62234497 256.38569641 C101.02702279 256.18121605 104.28584525 255.47677193 107.5786438 254.63569641 C108.27336792 254.45893372 108.96809204 254.28217102 109.68386841 254.10005188 C115.70092972 252.45757377 120.67554072 249.98037118 125.7036438 246.26069641 C126.65110474 245.5839386 126.65110474 245.5839386 127.6177063 244.89350891 C137.02477797 237.55847946 143.55511777 225.89854571 145.7036438 214.26069641 C145.7036438 211.29069641 145.7036438 208.32069641 145.7036438 205.26069641 C134.8136438 205.26069641 123.9236438 205.26069641 112.7036438 205.26069641 C112.0436438 207.90069641 111.3836438 210.54069641 110.7036438 213.26069641 C107.665375 218.14034024 104.59939397 220.39079778 99.17630005 221.92085266 C93.56347571 222.69228349 88.62499496 221.36445134 83.7661438 218.57319641 C79.19257246 213.44525279 78.32725309 208.32565015 78.29959106 201.6164093 C78.29272781 200.88696609 78.28586456 200.15752289 78.27879333 199.40597534 C78.26061813 197.01489835 78.2643493 194.62448334 78.27005005 192.23335266 C78.26548377 190.55858143 78.26017687 188.88381208 78.25416565 187.20904541 C78.24525277 183.70640937 78.24763677 180.20400156 78.25759888 176.70137024 C78.26908616 172.22813931 78.24887188 167.75569809 78.21968174 163.28257084 C78.20127465 159.82598932 78.20162114 156.36959549 78.20731926 152.91297722 C78.20747192 151.2644636 78.20147319 149.61593682 78.18902779 147.96747017 C78.08444871 131.84575078 78.08444871 131.84575078 82.7036438 125.26069641 C87.97629133 121.06409939 91.99842095 119.81368155 98.7036438 120.26069641 C101.16233311 121.08193895 103.35612532 122.13208176 105.7036438 123.26069641 C106.6936438 123.59069641 107.6836438 123.92069641 108.7036438 124.26069641 C110.62400897 128.10142675 111.5155284 132.10229252 112.7036438 136.26069641 C123.5936438 136.26069641 134.4836438 136.26069641 145.7036438 136.26069641 C145.7036438 122.12583337 141.10442733 111.13575025 131.6411438 100.57319641 C120.6792194 90.37319949 106.69961601 85.56845911 91.8677063 85.97554016 C76.00555551 87.40509202 64.01318112 95.59210701 53.8911438 107.51069641 Z M164.7036438 86.26069641 C166.36498544 95.43976238 166.36498544 95.43976238 168.41801453 104.485672 C168.57827635 105.12998814 168.73853818 105.77430429 168.90365642 106.43814516 C169.43074615 108.5536702 169.96278995 110.66791433 170.49490356 112.78218079 C170.87810706 114.31578723 171.26100242 115.84947069 171.64361572 117.38322449 C172.6754553 121.51567991 173.71164859 125.64703204 174.74873471 129.77817345 C175.83571532 134.11097912 176.91884419 138.44474761 178.00245667 142.77839661 C179.82000293 150.0449001 181.64019162 157.31073739 183.46218872 164.5761261 C185.80159069 173.90477559 188.13659545 183.23451991 190.47023106 192.56461334 C192.47855159 200.59391901 194.48887619 208.62272269 196.49952579 216.65144539 C197.14534758 219.23063463 197.7908936 221.80989278 198.43640327 224.38916016 C199.4489329 228.43438945 200.46271077 232.47930397 201.47746658 236.52397537 C201.84995416 238.00940087 202.22204476 239.49492597 202.59371376 240.98055649 C203.10013809 243.00450955 203.60800426 245.02809534 204.11625671 247.05158997 C204.40033669 248.18493523 204.68441668 249.31828049 204.97710514 250.48596954 C205.48601487 252.42954883 206.06831006 254.3546952 206.7036438 256.26069641 C217.5936438 256.26069641 228.4836438 256.26069641 239.7036438 256.26069641 C241.52186625 250.80602906 243.20178264 245.64256569 244.58296204 240.11091614 C244.74886741 239.4505635 244.91477277 238.79021087 245.08570558 238.10984755 C245.63250873 235.92983132 246.17431695 233.74860704 246.71609497 231.56733704 C247.11032162 229.99122246 247.50485619 228.41518487 247.89967346 226.83921814 C248.96465048 222.58441705 250.02525761 218.32853786 251.08498931 214.07242775 C252.19565236 209.61468683 253.31015405 205.15790571 254.42417908 200.70100403 C256.291753 193.22702411 258.15667923 185.75238769 260.01980591 178.27729797 C262.41415663 168.67093312 264.81290428 159.06567186 267.21302319 149.46074677 C269.2758127 141.20561637 271.33659653 132.9499855 273.39705491 124.69427299 C274.06034018 122.03702828 274.72390323 119.37985304 275.38750267 116.72268677 C276.42698513 112.55987838 277.46521984 108.39676072 278.5024662 104.23339462 C278.88423682 102.70177584 279.26640937 101.17025717 279.64900208 99.63884354 C280.16885347 97.55770215 280.68726314 95.47620707 281.20527649 93.39460754 C281.64189244 91.64368176 281.64189244 91.64368176 282.08732891 89.85738373 C282.74213232 87.54333896 282.74213232 87.54333896 282.7036438 86.26069641 C271.4836438 86.26069641 260.2636438 86.26069641 248.7036438 86.26069641 C246.68930973 92.30369863 244.86235438 98.20123918 243.34353638 104.36054993 C243.02101143 105.6499926 243.02101143 105.6499926 242.69197083 106.96548462 C241.99068452 109.77269955 241.29438944 112.58112599 240.59817505 115.38960266 C240.10952671 117.34979842 239.62056411 119.30991587 239.13130188 121.2699585 C237.85083073 126.40324108 236.57460456 131.53756967 235.29928589 136.6721344 C233.99459703 141.92169963 232.68585984 147.17025527 231.37747192 152.41889954 C228.81558576 162.69851928 226.25818697 172.97924962 223.7036438 183.26069641 C220.29751458 171.21501471 217.10542617 159.13336628 214.0942688 146.98335266 C213.67807091 145.31226603 213.26162278 143.64124171 212.84494019 141.97027588 C211.76489467 137.63698599 210.68749938 133.30304233 209.6109314 128.96888733 C207.87512908 121.98199691 206.13591054 114.99595783 204.39528656 108.01026726 C203.79090563 105.58255402 203.18813591 103.15444486 202.58554077 100.72628784 C202.21773514 99.24824216 201.84987906 97.77020903 201.48196411 96.29219055 C201.31575058 95.62059906 201.14953705 94.94900757 200.97828674 94.25706482 C200.30349144 91.55124308 199.58607042 88.90797628 198.7036438 86.26069641 C187.4836438 86.26069641 176.2636438 86.26069641 164.7036438 86.26069641 Z M44.7036438 291.26069641 C44.7036438 302.15069641 44.7036438 313.04069641 44.7036438 324.26069641 C123.2436438 324.26069641 201.7836438 324.26069641 282.7036438 324.26069641 C282.7036438 313.37069641 282.7036438 302.48069641 282.7036438 291.26069641 C204.1636438 291.26069641 125.6236438 291.26069641 44.7036438 291.26069641 Z " fill="#000000" transform="translate(92.29635620117188,50.73930358886719)"/>
</svg>
