<svg version="1.1" id="Layer_1" xmlns="http://www.w3.org/2000/svg" xmlns:xlink="http://www.w3.org/1999/xlink" x="0px" y="0px"
	 width="100%" viewBox="0 0 1024 1024" enable-background="new 0 0 1024 1024" xml:space="preserve">
<path fill="#000000" opacity="1.000000" stroke="none" 
	d="
M424.676025,582.324463 
	C447.997253,597.212830 471.025726,611.886169 494.029236,626.598572 
	C499.165710,629.883667 499.136047,631.186279 493.980865,634.550049 
	C472.219940,648.748962 450.416840,662.883545 428.709076,677.163208 
	C425.211060,679.464294 422.229645,679.605957 418.582794,677.466553 
	C392.006622,661.875305 365.369263,646.387878 338.695923,630.963257 
	C335.292145,628.994934 333.845520,626.536133 333.850983,622.521484 
	C333.948792,550.542419 333.989960,478.563019 333.829559,406.584167 
	C333.815521,400.284027 337.296936,397.245392 341.889618,394.550812 
	C359.399414,384.277283 376.881073,373.954346 394.463562,363.806335 
	C432.521301,341.840637 470.650299,319.998352 508.697479,298.014435 
	C511.917664,296.153778 514.684753,295.791718 517.991333,297.709747 
	C539.443787,310.153503 560.959839,322.487427 582.435425,334.891327 
	C583.554749,335.537811 584.494568,336.494995 585.413513,337.224640 
	C585.342651,339.796051 583.354126,340.370300 581.909119,341.330994 
	C529.337341,376.281952 476.815979,411.310638 423.690308,445.417847 
	C419.151428,448.331848 417.231049,451.656799 417.264801,457.195953 
	C417.490387,494.183807 417.524475,531.174927 417.228821,568.161865 
	C417.177948,574.525330 418.666046,579.162476 424.676025,582.324463 
z"/>
<path fill="#000000" opacity="1.000000" stroke="none" 
	d="
M686.676270,631.728638 
	C630.534851,664.114380 574.683350,696.267822 518.922668,728.578064 
	C514.983154,730.860779 511.926544,731.066467 507.957855,728.737793 
	C486.986847,716.433289 465.863647,704.388367 444.822632,692.202698 
	C439.726929,689.251526 439.658997,687.654968 444.443176,684.578552 
	C476.081177,664.234558 507.784027,643.991150 539.380005,623.582092 
	C560.902649,609.679871 582.267822,595.533936 603.749512,581.567810 
	C607.264099,579.282898 609.117554,576.552185 608.755676,572.126160 
	C608.376770,567.492004 608.594482,562.802368 608.678101,558.139221 
	C608.751465,554.048279 607.288940,552.230774 602.784973,552.270630 
	C581.628906,552.458191 560.469910,552.296875 539.312317,552.352600 
	C535.869690,552.361633 532.807373,551.692505 529.867004,549.797424 
	C513.209778,539.062195 496.469635,528.455750 479.805450,517.731323 
	C475.302246,514.833252 475.342590,513.453674 479.742401,510.647736 
	C495.599396,500.534882 511.465424,490.436127 527.351379,480.368896 
	C531.946045,477.457153 536.918274,475.991608 542.460449,476.000519 
	C589.940552,476.076782 637.420837,476.039795 684.901062,476.055389 
	C692.492432,476.057861 692.919006,476.469421 692.923767,483.855255 
	C692.953430,529.502747 692.907532,575.150452 693.048706,620.797546 
	C693.064209,625.807129 692.013000,629.644531 686.676270,631.728638 
z"/>
<path fill="#000000" opacity="1.000000" stroke="none" 
	d="
M660.251343,379.689850 
	C665.852905,382.841949 671.135132,385.813171 676.417358,388.784424 
	C676.285889,389.258240 676.154419,389.732086 676.022888,390.205902 
	C630.209167,390.205902 584.395447,390.205902 538.732239,390.205902 
	C538.152710,388.251160 538.996521,387.482727 540.052917,386.879974 
	C559.568726,375.743958 577.510193,362.187042 596.415100,350.106659 
	C600.824585,347.288910 604.128845,347.177643 608.542664,349.789764 
	C625.571228,359.867218 642.786377,369.629333 660.251343,379.689850 
z"/>
</svg>