<svg version="1.1" id="Layer_1" xmlns="http://www.w3.org/2000/svg" xmlns:xlink="http://www.w3.org/1999/xlink" x="0px" y="0px"
	 width="100%" viewBox="0 0 496 496" enable-background="new 0 0 496 496" xml:space="preserve">
<path fill="#000000" opacity="1.000000" stroke="none" 
	d="
M154.707550,463.791077 
	C154.622101,460.574493 158.768707,461.225311 158.900543,458.445374 
	C158.308975,456.983978 156.879791,456.786713 155.636887,456.472015 
	C145.856796,453.995544 137.247238,448.715942 128.011108,445.041656 
	C114.759865,439.770111 105.866791,429.991119 97.361496,419.476166 
	C91.419510,412.130219 84.740181,405.374542 80.842506,396.437836 
	C76.561005,386.621063 75.182678,376.300598 73.994072,365.867523 
	C73.161163,358.556671 71.990005,351.331726 68.405960,344.748383 
	C67.620827,343.306183 67.029358,341.248169 65.048256,341.506897 
	C60.558552,342.093323 60.198700,339.197021 59.861805,336.033325 
	C59.061485,328.517822 57.413818,321.402679 52.668152,315.111877 
	C48.884930,310.096863 48.570595,304.579132 51.948803,298.774048 
	C56.147388,291.559204 55.064083,283.653168 53.842987,275.844604 
	C52.111336,264.771210 51.465233,253.651276 53.971321,242.640350 
	C55.725140,234.934662 54.737514,227.382843 53.578892,219.822845 
	C52.879745,215.260941 52.867783,210.795670 54.423027,206.507446 
	C56.529808,200.698425 58.183475,194.795166 59.441448,188.753677 
	C59.883827,186.629135 60.696796,184.232101 62.630825,183.255783 
	C69.196098,179.941635 70.691605,173.356735 71.828644,167.462967 
	C75.054665,150.741119 85.439552,140.194992 99.599220,132.480682 
	C110.442284,126.573280 120.732834,119.949173 130.501892,112.318558 
	C142.704163,102.787331 155.809723,94.487770 169.525589,87.206131 
	C172.452072,85.652481 175.334686,83.869270 177.863739,81.746483 
	C182.253952,78.061508 186.875153,75.031807 192.498947,73.537224 
	C194.360626,73.042473 196.283890,71.970078 197.669937,70.633774 
	C204.002945,64.527985 211.591171,61.052341 220.071609,59.221073 
	C231.509247,56.751225 242.442001,52.673161 253.403320,48.685982 
	C262.211884,45.481869 270.755188,46.971355 278.312225,51.742771 
	C289.849548,59.027287 300.979370,66.973785 312.103180,74.890846 
	C319.641357,80.255966 327.682983,84.743515 336.417358,87.465759 
	C356.267731,93.652534 372.703430,105.438599 388.648132,118.107155 
	C397.637665,125.249619 406.890869,132.085449 414.992096,140.311081 
	C421.631317,147.052261 426.781677,154.588379 430.175995,163.517731 
	C432.698669,170.154022 435.376709,176.858368 440.525604,182.168365 
	C442.944183,184.662659 443.090668,188.268799 443.937927,191.453461 
	C445.090576,195.786148 447.454346,199.061890 451.560272,200.751724 
	C456.165863,202.647171 458.153351,206.241837 458.576996,210.820496 
	C458.913452,214.456741 459.419647,218.257095 458.746063,221.772980 
	C456.785736,232.005310 459.458038,241.590408 461.779999,251.323715 
	C465.353790,266.304779 467.562286,281.380615 464.574280,296.820160 
	C462.658966,306.716888 458.029602,315.685394 455.351593,325.308990 
	C454.097595,329.815277 453.118561,334.341187 452.822235,339.035370 
	C452.580780,342.860809 451.858612,346.637726 450.319855,350.202972 
	C448.128998,355.279297 446.652649,360.548065 445.854370,366.028076 
	C445.144806,370.899048 443.599487,375.392944 439.744446,378.828674 
	C437.367859,380.946716 434.892059,382.311249 431.600494,381.371307 
	C427.503113,380.201263 424.340820,382.027313 421.883118,384.964722 
	C415.924530,392.086212 409.135223,398.617462 405.668976,407.561554 
	C404.115753,411.569366 400.653503,414.229248 397.769196,417.144318 
	C387.116089,427.910736 376.246338,438.503540 363.106476,446.305573 
	C357.652832,449.543762 351.761932,451.904877 345.545441,453.366730 
	C343.601440,453.823853 341.536926,454.123657 339.790863,455.012665 
	C322.153809,463.992737 302.481995,467.427490 284.684418,476.653259 
	C269.468811,484.540619 251.675613,486.056519 233.968597,483.629761 
	C219.901016,481.701752 206.386581,477.150391 192.341064,475.532257 
	C183.046539,474.461426 173.801102,473.430511 164.868866,470.626831 
	C160.987076,469.408386 156.680893,468.528107 154.707550,463.791077 
M238.057755,215.548599 
	C240.116501,214.146179 242.175415,212.743988 244.233963,211.341278 
	C252.589645,205.647720 260.977081,200.000015 269.285492,194.238251 
	C272.725952,191.852325 272.645264,189.665146 269.159760,187.411346 
	C266.510162,185.698059 263.667480,184.275101 261.070068,182.490952 
	C254.879517,178.238663 249.436417,177.845398 242.494736,182.278763 
	C226.976868,192.189392 210.740829,200.976196 194.786118,210.201416 
	C192.420959,211.569000 190.315414,212.911743 190.307114,216.185394 
	C190.249283,238.982513 190.789291,261.788330 189.425034,284.569458 
	C189.239807,287.662384 190.531906,289.837524 193.323578,291.487183 
	C201.320602,296.212830 209.191772,301.152588 217.084259,306.053528 
	C219.839355,307.764374 222.223206,307.465485 224.863480,305.571106 
	C229.708359,302.094940 234.708099,298.824707 239.745178,295.629242 
	C244.645554,292.520477 244.668716,290.750580 239.573380,287.565613 
	C233.228485,283.599609 226.908615,279.592041 220.510986,275.712830 
	C218.657623,274.589050 217.494156,273.373260 217.449982,271.033966 
	C217.220612,258.888123 216.604187,246.747910 217.672165,234.603683 
	C217.981705,231.083847 219.035263,228.244385 222.140991,226.237625 
	C227.306503,222.899918 232.368057,219.401291 238.057755,215.548599 
M247.800278,323.776794 
	C250.920197,325.864075 253.460236,324.112549 256.064758,322.568451 
	C273.210938,312.403351 290.325989,302.184387 307.558807,292.168091 
	C310.518524,290.447815 311.787933,288.554535 311.740295,285.081421 
	C311.559937,271.929901 311.679657,258.774475 311.656830,245.620575 
	C311.645447,239.051483 311.032043,238.402145 304.604309,238.382126 
	C293.115540,238.346329 281.537994,239.261383 270.163544,238.121979 
	C259.571503,237.060928 252.095398,242.063858 244.351288,247.497192 
	C242.336899,248.910507 240.939636,251.452240 243.002029,252.907181 
	C249.073273,257.190247 254.124237,263.555481 262.534058,263.639496 
	C268.526581,263.699341 274.519012,263.783356 280.510986,263.884003 
	C281.982941,263.908691 283.864166,263.683289 284.023376,265.747162 
	C284.300690,269.341949 284.863800,272.909821 280.889893,275.462280 
	C267.474274,284.079376 254.211044,292.934021 240.907501,301.725006 
	C236.685074,304.515198 232.114670,306.864716 228.333191,311.103699 
	C233.962036,316.584290 240.932785,319.446594 247.800278,323.776794 
M267.981903,203.497040 
	C266.262146,204.674652 264.047424,205.438873 264.045135,208.086838 
	C271.520416,210.913864 296.212921,210.241409 300.580841,206.884399 
	C298.560272,203.278549 294.279053,202.914597 291.419006,200.612061 
	C285.100250,195.525070 278.682281,194.046295 272.219147,200.525665 
	C271.185547,201.561859 269.789581,202.236572 267.981903,203.497040 
z"/>
<path fill="#000000" opacity="1.000000" stroke="none" 
	d="
M44.025375,257.359528 
	C44.227608,255.314285 44.490429,253.702515 46.359226,253.051910 
	C49.973705,256.857269 49.871395,259.756317 45.987652,263.201294 
	C43.351131,262.111542 44.206295,259.724548 44.025375,257.359528 
z"/>
</svg>