<?xml version="1.0" encoding="UTF-8"?>
<svg version="1.1" xmlns="http://www.w3.org/2000/svg" width="256" height="256">
<path d="M0 0 C0.76759771 -0.00523668 1.53519543 -0.01047336 2.32605368 -0.01586872 C4.90008469 -0.03087965 7.4739171 -0.03157411 10.04798889 -0.03224182 C11.89266292 -0.03986247 13.73733378 -0.0482898 15.58200073 -0.0574646 C20.59434254 -0.07942325 25.60662335 -0.08821011 30.61900783 -0.09329104 C33.74949733 -0.09693238 36.87997079 -0.10317121 40.01045418 -0.11029243 C50.92857187 -0.1347897 61.846642 -0.14783986 72.76478577 -0.15138245 C82.94753617 -0.15502004 93.12998558 -0.18493075 103.31264395 -0.22678703 C112.05159445 -0.26145173 120.79044501 -0.27693021 129.52946383 -0.27762848 C134.75050102 -0.27842247 139.97123155 -0.28721726 145.1921978 -0.31562614 C150.10150156 -0.34174199 155.01024295 -0.34404834 159.91958427 -0.3279705 C161.72195153 -0.32615096 163.52435065 -0.33289221 165.32664871 -0.34878922 C167.78638836 -0.36916368 170.24414422 -0.35875083 172.70385742 -0.34057617 C173.41806302 -0.35377614 174.13226861 -0.36697611 174.8681168 -0.38057607 C178.62038205 -0.31719315 180.33717305 0.21544779 183.36951733 2.49053001 C187.07971543 7.53856887 185.91465219 12.93525911 185.02504349 18.88502312 C184.51154716 21.55361957 183.91207616 24.1877749 183.27919006 26.83055115 C183.05141373 27.82461975 182.82363739 28.81868835 182.58895874 29.84288025 C181.83670117 33.11307017 181.06753668 36.37903047 180.29823303 39.64524841 C179.76060831 41.96767747 179.22408063 44.29036073 178.68858337 46.61328125 C177.2726993 52.74235246 175.84260033 58.86801862 174.40925598 64.99302673 C172.9918619 71.05949333 171.58663575 77.12877235 170.18104553 83.19798279 C168.5271519 90.33793482 166.87167738 97.47749298 165.20649719 104.61482239 C162.58215392 115.8705288 159.98523797 127.13091734 157.46913147 138.41136169 C157.23848181 139.44188313 157.00783215 140.47240458 156.7701931 141.53415394 C155.69297983 146.34761649 154.62279276 151.16239361 153.56681824 155.9805603 C153.18971347 157.67103179 152.81228201 159.36143044 152.4344635 161.05174255 C152.19215059 162.17931945 152.19215059 162.17931945 151.94494247 163.32967567 C150.3610755 170.34205178 148.41034217 175.1238243 142.41542053 179.27415466 C139.42323678 180.77024654 136.35335722 180.42579297 133.0713501 180.42805481 C132.30546123 180.43243706 131.53957237 180.43681932 130.75047475 180.44133437 C128.17028172 180.45474639 125.59012287 180.46090658 123.00990295 180.46702576 C121.16552576 180.47492477 119.32115012 180.48319359 117.47677612 180.49180603 C111.40816224 180.51804721 105.33954137 180.53333477 99.27088928 180.54759216 C97.18397326 180.55295079 95.09705729 180.5583283 93.01014137 180.56372452 C84.33135037 180.58535543 75.65256126 180.60409347 66.97375011 180.61534691 C54.52398845 180.63159469 42.07453847 180.66479023 29.62489432 180.72174776 C20.87750208 180.76040709 12.13019335 180.77997479 3.38271791 180.78526747 C-1.84507164 180.78892615 -7.07252892 180.80100228 -12.30022621 180.83337021 C-17.21769049 180.86338067 -22.13462021 180.8697878 -27.05215645 180.85798645 C-28.85775492 180.85776513 -30.66337768 180.86611817 -32.46889114 180.88364029 C-34.93309425 180.9062546 -37.39534626 180.89807459 -39.85955811 180.88215637 C-40.57512794 180.89603846 -41.29069777 180.90992055 -42.02795154 180.9242233 C-45.79016993 180.86428669 -47.50129072 180.33691312 -50.53747654 178.0491333 C-53.87147014 173.52969224 -53.18003727 169.67731867 -52.58457947 164.27415466 C-51.89111218 159.93119834 -50.93796849 155.67552494 -49.92588806 151.39671326 C-49.6429187 150.15754654 -49.35994934 148.91837982 -49.06840515 147.6416626 C-48.29777619 144.26836198 -47.51247567 140.89863605 -46.72429609 137.52939939 C-45.89374624 133.96765954 -45.07683778 130.40279147 -44.25831604 126.83827209 C-42.87895115 120.83981309 -41.49101607 114.84339413 -40.0967865 108.84837341 C-38.15139231 100.48340902 -36.22057656 92.11513439 -34.29320788 83.74600101 C-32.1468568 74.4285979 -29.99578469 65.11227876 -27.83833313 55.79743958 C-27.6099764 54.81148326 -27.6099764 54.81148326 -27.37700641 53.80560863 C-26.34785218 49.36688679 -25.30804659 44.93073077 -24.26591492 40.49504089 C-23.1355987 35.67686578 -22.04498115 30.85202528 -20.9818573 26.01860046 C-20.47138412 23.75563047 -19.9608679 21.49267018 -19.45030212 19.22972107 C-19.23348974 18.20551748 -19.01667736 17.1813139 -18.79329491 16.12607384 C-17.30782515 9.64357039 -15.63781178 5.00263094 -9.89793491 1.13877201 C-6.6212128 -0.08590394 -3.45066467 -0.01163208 0 0 Z " fill="#182535" transform="translate(61.58457946777344,37.72584533691406)"/>
<path d="M0 0 C4.47955359 1.30397964 7.16533013 4.31987012 10.28125 7.6640625 C11.06757812 8.50195312 11.85390625 9.33984375 12.6640625 10.203125 C14.49258433 12.18447851 16.30830703 14.17332627 18.11328125 16.17578125 C21.67701067 20.11942948 25.3208736 23.98586295 28.96875 27.8515625 C29.64236572 28.56626709 30.31598145 29.28097168 31.01000977 30.01733398 C33.81042173 32.98766824 36.61263424 35.95629632 39.41601562 38.92382812 C40.11919922 39.66826172 40.82238281 40.41269531 41.546875 41.1796875 C42.24143799 41.91493652 42.93600098 42.65018555 43.65161133 43.40771484 C45.66803305 45.54773677 47.67627548 47.69519185 49.68359375 49.84375 C51.84877484 52.15850887 54.03750938 54.43724687 56.28515625 56.671875 C62.79288845 63.33237086 62.79288845 63.33237086 63.09375 67.9140625 C61.43621619 75.56421854 56.82990453 79.11055857 50.65625 83.2265625 C49.12033938 84.28015114 47.5852081 85.33487661 46.05078125 86.390625 C45.2613916 86.92977539 44.47200195 87.46892578 43.65869141 88.02441406 C39.84295898 90.65600771 36.0940408 93.37789221 32.34375 96.1015625 C30.83990725 97.19019189 29.33600064 98.27873307 27.83203125 99.3671875 C26.70982178 100.18026367 26.70982178 100.18026367 25.56494141 101.00976562 C3.12643992 117.26412591 3.12643992 117.26412591 -3.45092773 121.90454102 C-6.69601333 124.19593436 -9.88609418 126.54249404 -13.046875 128.94921875 C-14.54166053 130.06250824 -16.03645211 131.17578961 -17.53125 132.2890625 C-18.2126001 132.82281494 -18.8939502 133.35656738 -19.59594727 133.90649414 C-24.03615056 137.17310383 -27.21795859 138.23899679 -32.74487305 138.0300293 C-35.88942555 137.44701332 -37.59996464 135.98148399 -39.71875 133.6640625 C-40.93637731 130.01118057 -41.10950851 127.50652114 -40.71875 123.6640625 C-37.19094309 118.68877756 -33.11566037 115.54304171 -28.09375 112.1640625 C-26.57291044 111.11648015 -25.05343047 110.06692188 -23.53515625 109.015625 C-22.35203857 108.19819824 -22.35203857 108.19819824 -21.14501953 107.36425781 C-17.05256672 104.49649354 -13.0438571 101.51702058 -9.03125 98.5390625 C-3.06350066 94.12061542 2.9229658 89.73580881 8.98046875 85.44116211 C12.35119802 83.04977968 15.70168326 80.63309646 19.0390625 78.1953125 C19.85624756 77.59984619 20.67343262 77.00437988 21.51538086 76.39086914 C23.12262024 75.21866718 24.72768806 74.04348058 26.33032227 72.86499023 C27.42558228 72.06750366 27.42558228 72.06750366 28.54296875 71.25390625 C29.19225342 70.77816162 29.84153809 70.30241699 30.51049805 69.81225586 C32.28125 68.6640625 32.28125 68.6640625 35.28125 67.6640625 C30.0740478 60.98411625 24.63129399 54.8622313 18.59155273 48.94311523 C15.21006592 45.62225377 12.05743681 42.1966616 8.98828125 38.58984375 C6.29755437 35.55430977 3.37907399 32.75372507 0.4921875 29.90625 C-2.2044139 27.17153409 -4.7212316 24.31332323 -7.2109375 21.390625 C-8.6742162 19.6444673 -8.6742162 19.6444673 -10.34765625 18.203125 C-12.56826294 15.71047817 -12.71503279 13.27488622 -12.96484375 10.02734375 C-12.590139 6.42898862 -11.19649587 4.44443863 -8.65625 1.93359375 C-5.72451151 0.01259575 -3.46466811 -0.31182013 0 0 Z " fill="#FCFCFC" transform="translate(93.71875,57.3359375)"/>
<path d="M0 0 C0.76759771 -0.00523668 1.53519543 -0.01047336 2.32605368 -0.01586872 C4.90008469 -0.03087965 7.4739171 -0.03157411 10.04798889 -0.03224182 C11.89266292 -0.03986247 13.73733378 -0.0482898 15.58200073 -0.0574646 C20.59434254 -0.07942325 25.60662335 -0.08821011 30.61900783 -0.09329104 C33.74949733 -0.09693238 36.87997079 -0.10317121 40.01045418 -0.11029243 C50.92857187 -0.1347897 61.846642 -0.14783986 72.76478577 -0.15138245 C82.94753617 -0.15502004 93.12998558 -0.18493075 103.31264395 -0.22678703 C112.05159445 -0.26145173 120.79044501 -0.27693021 129.52946383 -0.27762848 C134.75050102 -0.27842247 139.97123155 -0.28721726 145.1921978 -0.31562614 C150.10150156 -0.34174199 155.01024295 -0.34404834 159.91958427 -0.3279705 C161.72195153 -0.32615096 163.52435065 -0.33289221 165.32664871 -0.34878922 C167.78638836 -0.36916368 170.24414422 -0.35875083 172.70385742 -0.34057617 C173.41806302 -0.35377614 174.13226861 -0.36697611 174.8681168 -0.38057607 C178.62038205 -0.31719315 180.33717305 0.21544779 183.36951733 2.49053001 C187.07971543 7.53856887 185.91465219 12.93525911 185.02504349 18.88502312 C184.51154716 21.55361957 183.91207616 24.1877749 183.27919006 26.83055115 C183.05141373 27.82461975 182.82363739 28.81868835 182.58895874 29.84288025 C181.83670117 33.11307017 181.06753668 36.37903047 180.29823303 39.64524841 C179.76060831 41.96767747 179.22408063 44.29036073 178.68858337 46.61328125 C177.2726993 52.74235246 175.84260033 58.86801862 174.40925598 64.99302673 C172.9918619 71.05949333 171.58663575 77.12877235 170.18104553 83.19798279 C168.5271519 90.33793482 166.87167738 97.47749298 165.20649719 104.61482239 C162.58215392 115.8705288 159.98523797 127.13091734 157.46913147 138.41136169 C157.23848181 139.44188313 157.00783215 140.47240458 156.7701931 141.53415394 C155.69297983 146.34761649 154.62279276 151.16239361 153.56681824 155.9805603 C153.18971347 157.67103179 152.81228201 159.36143044 152.4344635 161.05174255 C152.19215059 162.17931945 152.19215059 162.17931945 151.94494247 163.32967567 C150.3610755 170.34205178 148.41034217 175.1238243 142.41542053 179.27415466 C139.42323678 180.77024654 136.35335722 180.42579297 133.0713501 180.42805481 C132.30546123 180.43243706 131.53957237 180.43681932 130.75047475 180.44133437 C128.17028172 180.45474639 125.59012287 180.46090658 123.00990295 180.46702576 C121.16552576 180.47492477 119.32115012 180.48319359 117.47677612 180.49180603 C111.40816224 180.51804721 105.33954137 180.53333477 99.27088928 180.54759216 C97.18397326 180.55295079 95.09705729 180.5583283 93.01014137 180.56372452 C84.33135037 180.58535543 75.65256126 180.60409347 66.97375011 180.61534691 C54.52398845 180.63159469 42.07453847 180.66479023 29.62489432 180.72174776 C20.87750208 180.76040709 12.13019335 180.77997479 3.38271791 180.78526747 C-1.84507164 180.78892615 -7.07252892 180.80100228 -12.30022621 180.83337021 C-17.21769049 180.86338067 -22.13462021 180.8697878 -27.05215645 180.85798645 C-28.85775492 180.85776513 -30.66337768 180.86611817 -32.46889114 180.88364029 C-34.93309425 180.9062546 -37.39534626 180.89807459 -39.85955811 180.88215637 C-40.57512794 180.89603846 -41.29069777 180.90992055 -42.02795154 180.9242233 C-45.79016993 180.86428669 -47.50129072 180.33691312 -50.53747654 178.0491333 C-53.87147014 173.52969224 -53.18003727 169.67731867 -52.58457947 164.27415466 C-51.89111218 159.93119834 -50.93796849 155.67552494 -49.92588806 151.39671326 C-49.6429187 150.15754654 -49.35994934 148.91837982 -49.06840515 147.6416626 C-48.29777619 144.26836198 -47.51247567 140.89863605 -46.72429609 137.52939939 C-45.89374624 133.96765954 -45.07683778 130.40279147 -44.25831604 126.83827209 C-42.87895115 120.83981309 -41.49101607 114.84339413 -40.0967865 108.84837341 C-38.15139231 100.48340902 -36.22057656 92.11513439 -34.29320788 83.74600101 C-32.1468568 74.4285979 -29.99578469 65.11227876 -27.83833313 55.79743958 C-27.6099764 54.81148326 -27.6099764 54.81148326 -27.37700641 53.80560863 C-26.34785218 49.36688679 -25.30804659 44.93073077 -24.26591492 40.49504089 C-23.1355987 35.67686578 -22.04498115 30.85202528 -20.9818573 26.01860046 C-20.47138412 23.75563047 -19.9608679 21.49267018 -19.45030212 19.22972107 C-19.23348974 18.20551748 -19.01667736 17.1813139 -18.79329491 16.12607384 C-17.30782515 9.64357039 -15.63781178 5.00263094 -9.89793491 1.13877201 C-6.6212128 -0.08590394 -3.45066467 -0.01163208 0 0 Z M-12.20957947 6.64915466 C-17.91562322 14.11500631 -18.2769144 25.6916009 -20.03404236 34.71604919 C-21.2804109 41.02523643 -22.85583166 47.15637822 -24.58067322 53.35227966 C-26.04006895 58.824657 -27.06240083 64.39499472 -28.10215759 69.95970154 C-28.90364562 74.17353345 -29.83399299 78.29613781 -30.99473572 82.42649841 C-32.75887205 88.73542539 -34.14294062 95.1185697 -35.51625061 101.52122498 C-36.27836386 105.07184277 -37.05159019 108.62004828 -37.82286072 112.16868591 C-37.97518661 112.87079193 -38.12751251 113.57289795 -38.28445435 114.29627991 C-39.55001057 120.12724984 -40.83222664 125.95410094 -42.14707947 131.77415466 C-42.33923035 132.62606384 -42.53138123 133.47797302 -42.72935486 134.35569763 C-43.82742317 139.15809826 -44.9985762 143.93650439 -46.22520447 148.70774841 C-46.64177307 150.33390076 -46.64177307 150.33390076 -47.0667572 151.99290466 C-47.60506072 154.07964197 -48.15098534 156.16443397 -48.70591736 158.24681091 C-51.3243091 167.24767865 -51.3243091 167.24767865 -49.02690601 175.92912006 C-45.82664272 179.00189843 -43.3058709 178.97822741 -39.08938599 178.915802 C-38.33136651 178.92430752 -37.57334703 178.93281304 -36.79235727 178.9415763 C-34.25021401 178.96387645 -31.70953047 178.95040106 -29.16734314 178.93699646 C-27.34561106 178.94540815 -25.52388769 178.95593259 -23.70217896 178.96841431 C-18.75153667 178.99551398 -13.8013973 178.9907473 -8.85071349 178.97871375 C-4.71803812 178.97159022 -0.58545622 178.9800767 3.54721183 178.98861915 C13.29836995 179.00858818 23.04928303 179.00298474 32.8004303 178.98094177 C42.85827605 178.95859167 52.91547951 178.97615642 62.97326452 179.01399106 C71.60867702 179.04523363 80.24389078 179.05313785 88.87935275 179.04203731 C94.03674944 179.03555043 99.19377572 179.03755112 104.35112953 179.06136131 C109.20313093 179.08261979 114.05422736 179.07462715 118.9061718 179.04426765 C120.68510429 179.03794169 122.46410709 179.04179767 124.24298859 179.05667877 C134.69532866 179.53582339 134.69532866 179.53582339 143.9196167 175.47711182 C147.1892239 171.96579123 148.3439716 167.85931339 149.41542053 163.27415466 C149.66211487 162.26385193 149.9088092 161.25354919 150.16297913 160.21263123 C151.01247361 156.61544708 151.81182709 153.00962169 152.60292053 149.39915466 C153.06422884 147.3201269 153.52727669 145.2414909 153.99035645 143.16285706 C154.31232055 141.71707532 154.63373476 140.27117103 154.95462036 138.82514954 C156.05015958 133.89225489 157.16608516 128.96439552 158.29823303 124.03977966 C158.45529724 123.35654129 158.61236145 122.67330292 158.77418518 121.96936035 C159.09557291 120.57193045 159.41702526 119.17451541 159.73854065 117.77711487 C162.14278827 107.32277575 164.51547394 96.86215216 166.82948303 86.38743591 C167.03577835 85.45392303 167.24207367 84.52041016 167.45462036 83.55860901 C168.29809364 79.740374 169.14132004 75.92208605 169.98265076 72.1033783 C172.25797951 61.78472652 174.57793089 51.48073183 177.05213928 41.20774841 C177.26327866 40.329207 177.47441803 39.45066559 177.69195557 38.54550171 C178.69061343 34.39822169 179.69934955 30.25376815 180.72377014 26.11277771 C181.08211952 24.63797158 181.4402845 23.16312063 181.79823303 21.68821716 C182.11163635 20.41929626 182.42503967 19.15037537 182.74794006 17.84300232 C183.44811887 14.09932502 183.88334849 11.06343196 183.41542053 7.27415466 C180.76602013 3.83265108 179.27932549 2.42919817 174.95616913 1.6533289 C173.6044503 1.62985673 172.25208407 1.63371728 170.90040588 1.65942383 C170.15237151 1.65374057 169.40433713 1.64805732 168.63363504 1.64220184 C166.13129147 1.62930004 163.63056602 1.65208562 161.12831116 1.67478943 C159.33275005 1.67292531 157.53719008 1.66888853 155.74163818 1.6628418 C150.86756531 1.65286106 145.99407331 1.67404762 141.12008476 1.70132184 C136.0201771 1.72514339 130.92028114 1.72220683 125.82032776 1.72262573 C117.25573386 1.72725481 108.69136216 1.75090313 100.12684631 1.78709412 C90.22420933 1.82882815 80.32177248 1.84640895 70.4190526 1.84971386 C59.87807844 1.85331364 49.33717632 1.87218974 38.79623222 1.89683414 C35.75818731 1.90306293 32.72014789 1.90669916 29.68209839 1.90986824 C24.90831675 1.91576994 20.13467807 1.93208628 15.36095619 1.9564724 C13.60860105 1.96391165 11.85622791 1.96798428 10.10385704 1.96845245 C7.7125691 1.96971069 5.32165771 1.98326004 2.93043518 2 C2.23636645 1.99758492 1.54229772 1.99516983 0.8271966 1.99268156 C-4.68954055 2.05317668 -8.10680959 2.93712478 -12.20957947 6.64915466 Z " fill="#B2D1F8" transform="translate(61.58457946777344,37.72584533691406)"/>
<path d="M0 0 C1.08708252 -0.00478363 2.17416504 -0.00956726 3.29418945 -0.01449585 C5.58709159 -0.01789052 7.8800424 -0.00871864 10.17285156 0.01220703 C13.6762313 0.0389764 17.17640705 0.01244196 20.6796875 -0.01953125 C22.91146538 -0.01622708 25.14324128 -0.0098207 27.375 0 C28.41889893 -0.01012115 29.46279785 -0.02024231 30.53833008 -0.03067017 C38.64109437 0.09948036 38.64109437 0.09948036 42.34912109 3.07666016 C44.6875 5.6640625 44.6875 5.6640625 45.4140625 7.7265625 C45.161141 12.55152653 44.29775538 15.1599911 40.6875 18.6640625 C38.24299126 19.88631687 36.59160723 19.82384773 33.8581543 19.87280273 C32.85338547 19.89209335 31.84861664 19.91138397 30.81340027 19.93125916 C26.21621191 19.98889955 21.61918156 20.03826984 17.02172852 20.0690918 C14.59580264 20.0906924 12.16995513 20.12481903 9.74438477 20.17163086 C6.2498081 20.23848198 2.75684384 20.26606716 -0.73828125 20.28515625 C-1.82176346 20.31298691 -2.90524567 20.34081757 -4.02156067 20.36949158 C-11.36384632 20.34940609 -11.36384632 20.34940609 -14.1146698 18.36210632 C-16.40517955 15.69857715 -18.02189273 13.15548293 -18 9.6015625 C-17.2886626 5.52753922 -16.55284845 4.17541317 -13.32202148 1.6831665 C-9.15668612 -0.42923188 -4.57252864 -0.04433309 0 0 Z " fill="#FDFDFE" transform="translate(134.3125,172.3359375)"/>
<path d="M0 0 C2 2 2 2 2.3125 5.3125 C1.92726922 9.85822322 0.87964473 12.39059084 -2.64379883 15.4074707 C-4.75069469 16.98994615 -6.89480328 18.50189037 -9.0625 20 C-10.69811895 21.15466143 -12.33352986 22.30961759 -13.96875 23.46484375 C-14.80535156 24.05120605 -15.64195312 24.63756836 -16.50390625 25.24169922 C-20.38540015 27.97590492 -24.22138428 30.77202136 -28.0625 33.5625 C-34.54070508 38.2494284 -41.0588543 42.87652849 -47.59912109 47.47631836 C-52.04808003 50.60975817 -56.47550172 53.77112948 -60.88476562 56.96020508 C-62.40868389 58.0619437 -63.93469983 59.16078717 -65.46289062 60.2565918 C-68.99168769 62.79185528 -72.48000621 65.35531105 -75.89453125 68.04296875 C-86.46095263 76.23429794 -86.46095263 76.23429794 -94.3046875 75.3515625 C-95.14386719 75.17753906 -95.14386719 75.17753906 -96 75 C-96 74.34 -96 73.68 -96 73 C-95.195625 72.99226563 -95.195625 72.99226563 -94.375 72.984375 C-85.15832651 72.07483485 -79.11716818 66.18828006 -72.13525391 60.65673828 C-68.71644162 58.0040902 -65.17526844 55.53484668 -61.625 53.0625 C-55.7392061 48.93866527 -49.88488235 44.77544333 -44.0625 40.5625 C-43.31991943 40.02536377 -42.57733887 39.48822754 -41.81225586 38.93481445 C-38.7619327 36.72698349 -35.71300595 34.51723497 -32.66503906 32.30615234 C-30.33995397 30.61971515 -28.01378532 28.93478106 -25.6875 27.25 C-24.57084961 26.43897827 -24.57084961 26.43897827 -23.43164062 25.61157227 C-20.01705939 23.14023507 -16.58997911 20.7025575 -13.0859375 18.359375 C-12.18742065 17.75561035 -12.18742065 17.75561035 -11.27075195 17.13964844 C-9.68801128 16.08373398 -8.09631886 15.04127108 -6.50390625 14 C-2.55812665 10.84830085 -1.20234713 8.12210681 -0.3125 3.1875 C-0.209375 2.135625 -0.10625 1.08375 0 0 Z " fill="#2E4F7F" transform="translate(156,122)"/>
<path d="M0 0 C2.43595272 3.65392909 2.1257742 4.99135953 1.48046875 9.12890625 C0.86344926 11.53177075 0.07700225 12.64196007 -2 14 C-4.90749422 14.96916474 -6.78115599 15.13181804 -9.80688477 15.14526367 C-10.78121964 15.15164352 -11.7555545 15.15802338 -12.75941467 15.16459656 C-14.3345005 15.16626579 -14.3345005 15.16626579 -15.94140625 15.16796875 C-17.02002426 15.17129715 -18.09864227 15.17462555 -19.20994568 15.17805481 C-21.490464 15.18311871 -23.77098973 15.1854633 -26.05151367 15.18530273 C-29.55204342 15.18749346 -33.05226023 15.20566662 -36.55273438 15.22460938 C-38.76562392 15.22754248 -40.97851496 15.22952783 -43.19140625 15.23046875 C-44.2434877 15.23765427 -45.29556915 15.24483978 -46.37953186 15.25224304 C-47.35071457 15.24916641 -48.32189728 15.24608978 -49.32250977 15.24291992 C-50.17949966 15.24434494 -51.03648956 15.24576996 -51.91944885 15.24723816 C-54 15 -54 15 -56 13 C-55.38469925 12.99857498 -54.7693985 12.99714996 -54.13545227 12.99568176 C-47.72730007 12.97598484 -41.32010042 12.9217112 -34.91235352 12.84741211 C-32.52147253 12.82422486 -30.1304893 12.80983472 -27.73950195 12.80444336 C-24.3009463 12.79515962 -20.86400056 12.75417832 -17.42578125 12.70703125 C-15.82395744 12.71293022 -15.82395744 12.71293022 -14.18977356 12.71894836 C-8.09049062 12.60870842 -8.09049062 12.60870842 -2.83666992 9.6940918 C-0.61276967 6.43199698 -0.22977715 3.90621152 0 0 Z " fill="#264776" transform="translate(179,179)"/>
<path d="M0 0 C0.66 0.33 1.32 0.66 2 1 C-1.26425765 5.22433343 -4.11653034 8.60433564 -9 11 C-12.36304489 11.31260687 -15.63416569 11.23946647 -19 11 C-19 10.34 -19 9.68 -19 9 C-18.38253906 8.93683594 -17.76507813 8.87367188 -17.12890625 8.80859375 C-9.80491607 7.74956929 -5.44238706 4.91655256 0 0 Z " fill="#355684" transform="translate(79,186)"/>
<path d="M0 0 C0.33 0 0.66 0 1 0 C0.66569121 6.46330323 -0.27556671 9.49530779 -5 14 C-7.3125 14.875 -7.3125 14.875 -9 15 C-7.59535068 12.59202973 -6.20804966 10.26873081 -4.5 8.0625 C-2.6523071 5.52192227 -1.35074398 2.83013025 0 0 Z " fill="#A4C2F8" transform="translate(211,202)"/>
</svg>
