<?xml version="1.0" encoding="UTF-8"?>
<svg version="1.1" xmlns="http://www.w3.org/2000/svg" width="636" height="157">
<path d="M0,0 L1,0 L1,1 L2,1 L2,19 L1,19 L1,20 L0,20 L0,21 L-1,21 L-1,22 L-2,22 L-2,23 L-3,23 L-3,24 L-4,24 L-4,25 L-5,25 L-5,26 L-6,26 L-6,27 L-7,27 L-7,28 L-8,28 L-8,29 L-9,29 L-9,30 L-10,30 L-10,31 L-11,31 L-11,32 L-12,32 L-12,33 L-13,33 L-13,34 L-14,34 L-14,35 L-15,35 L-15,36 L-16,36 L-16,37 L-17,37 L-17,38 L-18,38 L-18,39 L-19,39 L-19,40 L-20,40 L-20,41 L-21,41 L-21,42 L-22,42 L-22,43 L-23,43 L-23,44 L-24,44 L-24,45 L-25,45 L-25,47 L-26,47 L-26,48 L-27,48 L-27,49 L-28,49 L-28,51 L-29,51 L-29,53 L-30,53 L-30,55 L-31,55 L-31,57 L-32,57 L-32,61 L-33,61 L-33,76 L-32,76 L-32,80 L-31,80 L-31,82 L-30,82 L-30,84 L-29,84 L-29,87 L-28,87 L-28,88 L-27,88 L-27,89 L-26,89 L-26,91 L-25,91 L-25,92 L-24,92 L-24,93 L-23,93 L-23,94 L-22,94 L-22,95 L-21,95 L-21,96 L-19,96 L-19,97 L-18,97 L-18,98 L-16,98 L-16,99 L-15,99 L-15,100 L-12,100 L-12,101 L-9,101 L-9,102 L-7,102 L-7,103 L9,103 L9,102 L12,102 L12,101 L15,101 L15,100 L17,100 L17,99 L19,99 L19,98 L20,98 L20,97 L22,97 L22,96 L23,96 L23,95 L24,95 L24,94 L26,94 L26,93 L27,93 L27,91 L28,91 L28,90 L29,90 L29,89 L30,89 L30,88 L31,88 L31,86 L32,86 L32,84 L33,84 L33,82 L34,82 L34,79 L35,79 L35,76 L36,76 L36,62 L35,62 L35,58 L34,58 L34,56 L33,56 L33,54 L32,54 L32,51 L31,51 L31,50 L30,50 L30,48 L29,48 L29,47 L28,47 L28,46 L27,46 L27,45 L26,45 L26,42 L27,42 L27,41 L28,41 L28,40 L29,40 L29,39 L30,39 L30,38 L31,38 L31,37 L32,37 L32,36 L33,36 L33,35 L34,35 L34,34 L36,34 L36,35 L37,35 L37,36 L38,36 L38,37 L39,37 L39,39 L40,39 L40,40 L41,40 L41,41 L42,41 L42,43 L43,43 L43,44 L44,44 L44,46 L45,46 L45,48 L46,48 L46,51 L47,51 L47,53 L48,53 L48,56 L49,56 L49,64 L50,64 L50,73 L49,73 L49,80 L48,80 L48,83 L47,83 L47,86 L46,86 L46,89 L45,89 L45,91 L44,91 L44,92 L43,92 L43,94 L42,94 L42,96 L41,96 L41,97 L40,97 L40,98 L39,98 L39,99 L38,99 L38,101 L37,101 L37,102 L36,102 L36,103 L35,103 L35,104 L34,104 L34,105 L33,105 L33,106 L31,106 L31,107 L30,107 L30,108 L29,108 L29,109 L27,109 L27,110 L26,110 L26,111 L24,111 L24,112 L22,112 L22,113 L20,113 L20,114 L17,114 L17,115 L14,115 L14,116 L11,116 L11,117 L-9,117 L-9,116 L-13,116 L-13,115 L-15,115 L-15,114 L-18,114 L-18,113 L-20,113 L-20,112 L-22,112 L-22,111 L-24,111 L-24,110 L-25,110 L-25,109 L-27,109 L-27,108 L-28,108 L-28,107 L-29,107 L-29,106 L-31,106 L-31,105 L-32,105 L-32,104 L-33,104 L-33,103 L-34,103 L-34,102 L-35,102 L-35,101 L-36,101 L-36,100 L-37,100 L-37,98 L-38,98 L-38,97 L-39,97 L-39,95 L-40,95 L-40,94 L-41,94 L-41,92 L-42,92 L-42,90 L-43,90 L-43,88 L-44,88 L-44,86 L-45,86 L-45,83 L-46,83 L-46,79 L-47,79 L-47,72 L-48,72 L-48,65 L-47,65 L-47,59 L-46,59 L-46,54 L-45,54 L-45,51 L-44,51 L-44,49 L-43,49 L-43,47 L-42,47 L-42,45 L-41,45 L-41,43 L-40,43 L-40,42 L-39,42 L-39,40 L-38,40 L-38,39 L-37,39 L-37,38 L-36,38 L-36,37 L-35,37 L-35,35 L-34,35 L-34,34 L-33,34 L-33,33 L-32,33 L-32,32 L-31,32 L-31,31 L-30,31 L-30,30 L-29,30 L-29,29 L-28,29 L-28,28 L-27,28 L-27,27 L-26,27 L-26,26 L-25,26 L-25,25 L-24,25 L-24,24 L-23,24 L-23,23 L-22,23 L-22,22 L-21,22 L-21,21 L-20,21 L-20,20 L-19,20 L-19,19 L-18,19 L-18,18 L-17,18 L-17,17 L-16,17 L-16,16 L-15,16 L-15,15 L-14,15 L-14,14 L-13,14 L-13,13 L-12,13 L-12,12 L-11,12 L-11,11 L-10,11 L-10,10 L-9,10 L-9,9 L-8,9 L-8,8 L-7,8 L-7,7 L-6,7 L-6,6 L-5,6 L-5,5 L-4,5 L-4,4 L-3,4 L-3,3 L-2,3 L-2,2 L-1,2 L-1,1 L0,1 Z " fill="#F0674C" transform="translate(48,1)"/>
<path d="M0,0 L26,0 L26,1 L37,1 L37,2 L42,2 L42,3 L46,3 L46,4 L49,4 L49,5 L51,5 L51,6 L52,6 L52,7 L54,7 L54,8 L56,8 L56,9 L57,9 L57,10 L58,10 L58,11 L59,11 L59,12 L60,12 L60,13 L61,13 L61,14 L62,14 L62,16 L63,16 L63,17 L64,17 L64,19 L65,19 L65,21 L66,21 L66,25 L67,25 L67,29 L68,29 L68,40 L67,40 L67,45 L66,45 L66,49 L65,49 L65,51 L64,51 L64,53 L63,53 L63,54 L62,54 L62,56 L61,56 L61,57 L60,57 L60,58 L59,58 L59,59 L58,59 L58,60 L57,60 L57,61 L56,61 L56,62 L54,62 L54,63 L53,63 L53,64 L51,64 L51,65 L49,65 L49,66 L47,66 L47,67 L44,67 L44,68 L42,68 L42,69 L37,69 L37,70 L11,70 L11,108 L-1,108 L-1,1 L0,1 Z M11,12 L11,59 L20,59 L20,58 L33,58 L33,57 L38,57 L38,56 L41,56 L41,55 L43,55 L43,54 L45,54 L45,53 L47,53 L47,52 L48,52 L48,51 L49,51 L49,50 L50,50 L50,49 L51,49 L51,48 L52,48 L52,46 L53,46 L53,43 L54,43 L54,39 L55,39 L55,30 L54,30 L54,27 L53,27 L53,24 L52,24 L52,22 L51,22 L51,21 L50,21 L50,20 L49,20 L49,19 L48,19 L48,18 L46,18 L46,17 L45,17 L45,16 L43,16 L43,15 L40,15 L40,14 L37,14 L37,13 L12,13 L12,12 Z " fill="#444444" transform="translate(145,9)"/>
<path d="M0,0 L4,0 L4,47 L5,47 L5,46 L6,46 L6,45 L8,45 L8,44 L9,44 L9,43 L10,43 L10,42 L12,42 L12,41 L14,41 L14,40 L16,40 L16,39 L18,39 L18,38 L20,38 L20,37 L25,37 L25,36 L36,36 L36,37 L41,37 L41,38 L43,38 L43,39 L45,39 L45,40 L46,40 L46,41 L47,41 L47,42 L48,42 L48,43 L49,43 L49,44 L50,44 L50,45 L51,45 L51,47 L52,47 L52,48 L53,48 L53,51 L54,51 L54,55 L55,55 L55,62 L56,62 L56,116 L55,116 L55,117 L43,117 L43,61 L42,61 L42,57 L41,57 L41,54 L40,54 L40,53 L39,53 L39,52 L38,52 L38,51 L37,51 L37,50 L36,50 L36,49 L33,49 L33,48 L21,48 L21,49 L18,49 L18,50 L15,50 L15,51 L14,51 L14,52 L12,52 L12,53 L10,53 L10,54 L9,54 L9,55 L8,55 L8,56 L6,56 L6,57 L5,57 L5,58 L4,58 L4,117 L3,117 L3,118 L-6,118 L-6,117 L-8,117 L-8,2 L-7,2 L-7,1 L0,1 Z " fill="#484848" transform="translate(580,0)"/>
<path d="M0,0 L17,0 L17,1 L21,1 L21,2 L24,2 L24,3 L26,3 L26,4 L28,4 L28,5 L29,5 L29,6 L31,6 L31,7 L32,7 L32,8 L33,8 L33,9 L34,9 L34,10 L35,10 L35,11 L36,11 L36,12 L37,12 L37,13 L38,13 L38,15 L39,15 L39,16 L40,16 L40,18 L41,18 L41,20 L42,20 L42,22 L43,22 L43,24 L44,24 L44,27 L45,27 L45,34 L46,34 L46,48 L45,48 L45,54 L44,54 L44,57 L43,57 L43,60 L42,60 L42,62 L41,62 L41,64 L40,64 L40,66 L39,66 L39,67 L38,67 L38,69 L37,69 L37,70 L36,70 L36,71 L35,71 L35,72 L34,72 L34,73 L33,73 L33,74 L32,74 L32,75 L30,75 L30,76 L29,76 L29,77 L28,77 L28,78 L26,78 L26,79 L24,79 L24,80 L22,80 L22,81 L18,81 L18,82 L12,82 L12,83 L2,83 L2,82 L-4,82 L-4,81 L-7,81 L-7,80 L-9,80 L-9,79 L-11,79 L-11,78 L-13,78 L-13,77 L-14,77 L-14,76 L-16,76 L-16,75 L-17,75 L-17,74 L-18,74 L-18,73 L-19,73 L-19,72 L-20,72 L-20,71 L-21,71 L-21,70 L-22,70 L-22,69 L-23,69 L-23,67 L-24,67 L-24,66 L-25,66 L-25,64 L-26,64 L-26,62 L-27,62 L-27,60 L-28,60 L-28,57 L-29,57 L-29,53 L-30,53 L-30,48 L-31,48 L-31,34 L-30,34 L-30,30 L-29,30 L-29,26 L-28,26 L-28,23 L-27,23 L-27,21 L-26,21 L-26,19 L-25,19 L-25,17 L-24,17 L-24,16 L-23,16 L-23,14 L-22,14 L-22,13 L-21,13 L-21,12 L-20,12 L-20,11 L-19,11 L-19,10 L-18,10 L-18,9 L-17,9 L-17,8 L-16,8 L-16,7 L-15,7 L-15,6 L-13,6 L-13,5 L-11,5 L-11,4 L-9,4 L-9,3 L-8,3 L-8,2 L-5,2 L-5,1 L0,1 Z M2,11 L2,12 L-1,12 L-1,13 L-3,13 L-3,14 L-5,14 L-5,15 L-7,15 L-7,16 L-8,16 L-8,17 L-9,17 L-9,18 L-10,18 L-10,19 L-11,19 L-11,20 L-12,20 L-12,21 L-13,21 L-13,23 L-14,23 L-14,24 L-15,24 L-15,27 L-16,27 L-16,29 L-17,29 L-17,33 L-18,33 L-18,41 L-19,41 L-19,42 L-18,42 L-18,49 L-17,49 L-17,53 L-16,53 L-16,55 L-15,55 L-15,58 L-14,58 L-14,60 L-13,60 L-13,61 L-12,61 L-12,62 L-11,62 L-11,64 L-10,64 L-10,65 L-8,65 L-8,66 L-7,66 L-7,67 L-6,67 L-6,68 L-4,68 L-4,69 L-2,69 L-2,70 L1,70 L1,71 L5,71 L5,72 L11,72 L11,71 L15,71 L15,70 L18,70 L18,69 L20,69 L20,68 L22,68 L22,67 L23,67 L23,66 L25,66 L25,65 L26,65 L26,64 L27,64 L27,63 L28,63 L28,61 L29,61 L29,60 L30,60 L30,58 L31,58 L31,56 L32,56 L32,53 L33,53 L33,49 L34,49 L34,33 L33,33 L33,30 L32,30 L32,26 L31,26 L31,25 L30,25 L30,23 L29,23 L29,21 L28,21 L28,20 L27,20 L27,19 L26,19 L26,18 L25,18 L25,17 L24,17 L24,16 L23,16 L23,15 L21,15 L21,14 L19,14 L19,13 L17,13 L17,12 L14,12 L14,11 Z " fill="#474747" transform="translate(386,36)"/>
<path d="M0,0 L12,0 L12,1 L13,1 L13,4 L14,4 L14,6 L15,6 L15,9 L16,9 L16,12 L17,12 L17,14 L18,14 L18,16 L19,16 L19,20 L20,20 L20,22 L21,22 L21,24 L22,24 L22,27 L23,27 L23,30 L24,30 L24,32 L25,32 L25,35 L26,35 L26,38 L27,38 L27,40 L28,40 L28,43 L29,43 L29,45 L30,45 L30,48 L31,48 L31,51 L32,51 L32,53 L33,53 L33,56 L34,56 L34,59 L35,59 L35,61 L36,61 L36,60 L37,60 L37,57 L38,57 L38,54 L39,54 L39,52 L40,52 L40,49 L41,49 L41,47 L42,47 L42,43 L43,43 L43,41 L44,41 L44,39 L45,39 L45,35 L46,35 L46,33 L47,33 L47,31 L48,31 L48,28 L49,28 L49,25 L50,25 L50,22 L51,22 L51,20 L52,20 L52,17 L53,17 L53,14 L54,14 L54,12 L55,12 L55,9 L56,9 L56,6 L57,6 L57,4 L58,4 L58,1 L59,1 L59,0 L71,0 L71,3 L70,3 L70,5 L69,5 L69,8 L68,8 L68,11 L67,11 L67,13 L66,13 L66,16 L65,16 L65,19 L64,19 L64,21 L63,21 L63,23 L62,23 L62,26 L61,26 L61,29 L60,29 L60,31 L59,31 L59,34 L58,34 L58,36 L57,36 L57,39 L56,39 L56,41 L55,41 L55,44 L54,44 L54,47 L53,47 L53,49 L52,49 L52,51 L51,51 L51,54 L50,54 L50,57 L49,57 L49,59 L48,59 L48,62 L47,62 L47,65 L46,65 L46,67 L45,67 L45,69 L44,69 L44,72 L43,72 L43,75 L42,75 L42,77 L41,77 L41,80 L40,80 L40,83 L39,83 L39,85 L38,85 L38,88 L37,88 L37,91 L36,91 L36,93 L35,93 L35,95 L34,95 L34,98 L33,98 L33,100 L32,100 L32,102 L31,102 L31,104 L30,104 L30,106 L29,106 L29,108 L28,108 L28,109 L27,109 L27,111 L26,111 L26,112 L25,112 L25,113 L24,113 L24,114 L23,114 L23,115 L21,115 L21,116 L20,116 L20,117 L18,117 L18,118 L15,118 L15,119 L2,119 L2,118 L-1,118 L-1,117 L-4,117 L-4,116 L-6,116 L-6,115 L-7,115 L-7,113 L-6,113 L-6,110 L-5,110 L-5,107 L-4,107 L-4,104 L-2,104 L-2,105 L0,105 L0,106 L4,106 L4,107 L13,107 L13,106 L15,106 L15,105 L16,105 L16,104 L17,104 L17,103 L18,103 L18,102 L19,102 L19,100 L20,100 L20,98 L21,98 L21,96 L22,96 L22,94 L23,94 L23,92 L24,92 L24,89 L25,89 L25,86 L26,86 L26,84 L27,84 L27,81 L28,81 L28,78 L29,78 L29,75 L28,75 L28,73 L27,73 L27,70 L26,70 L26,68 L25,68 L25,65 L24,65 L24,62 L23,62 L23,60 L22,60 L22,58 L21,58 L21,55 L20,55 L20,52 L19,52 L19,50 L18,50 L18,47 L17,47 L17,44 L16,44 L16,42 L15,42 L15,40 L14,40 L14,37 L13,37 L13,34 L12,34 L12,32 L11,32 L11,30 L10,30 L10,27 L9,27 L9,24 L8,24 L8,22 L7,22 L7,19 L6,19 L6,16 L5,16 L5,14 L4,14 L4,12 L3,12 L3,9 L2,9 L2,6 L1,6 L1,4 L0,4 L0,2 L-1,2 L-1,1 L0,1 Z " fill="#494949" transform="translate(220,38)"/>
<path d="M0,0 L84,0 L84,1 L85,1 L85,12 L84,12 L84,13 L49,13 L49,12 L48,12 L48,108 L36,108 L36,13 L-1,13 L-1,12 L-2,12 L-2,1 L0,1 Z " fill="#494949" transform="translate(279,9)"/>
<path d="M0,0 L18,0 L18,1 L23,1 L23,2 L25,2 L25,3 L28,3 L28,4 L30,4 L30,5 L31,5 L31,6 L33,6 L33,10 L32,10 L32,14 L31,14 L31,17 L27,17 L27,16 L26,16 L26,15 L24,15 L24,14 L21,14 L21,13 L17,13 L17,12 L13,12 L13,11 L4,11 L4,12 L0,12 L0,13 L-3,13 L-3,14 L-5,14 L-5,15 L-6,15 L-6,16 L-8,16 L-8,17 L-9,17 L-9,18 L-10,18 L-10,19 L-11,19 L-11,20 L-12,20 L-12,21 L-13,21 L-13,23 L-14,23 L-14,25 L-15,25 L-15,27 L-16,27 L-16,30 L-17,30 L-17,35 L-18,35 L-18,47 L-17,47 L-17,52 L-16,52 L-16,55 L-15,55 L-15,57 L-14,57 L-14,59 L-13,59 L-13,61 L-12,61 L-12,62 L-11,62 L-11,63 L-10,63 L-10,64 L-9,64 L-9,65 L-8,65 L-8,66 L-7,66 L-7,67 L-5,67 L-5,68 L-3,68 L-3,69 L-1,69 L-1,70 L3,70 L3,71 L15,71 L15,70 L19,70 L19,69 L22,69 L22,68 L25,68 L25,67 L27,67 L27,66 L28,66 L28,65 L31,65 L31,68 L32,68 L32,74 L33,74 L33,76 L32,76 L32,77 L30,77 L30,78 L28,78 L28,79 L26,79 L26,80 L24,80 L24,81 L20,81 L20,82 L14,82 L14,83 L3,83 L3,82 L-3,82 L-3,81 L-7,81 L-7,80 L-9,80 L-9,79 L-11,79 L-11,78 L-13,78 L-13,77 L-14,77 L-14,76 L-16,76 L-16,75 L-17,75 L-17,74 L-18,74 L-18,73 L-19,73 L-19,72 L-20,72 L-20,71 L-21,71 L-21,70 L-22,70 L-22,69 L-23,69 L-23,67 L-24,67 L-24,65 L-25,65 L-25,64 L-26,64 L-26,62 L-27,62 L-27,59 L-28,59 L-28,56 L-29,56 L-29,53 L-30,53 L-30,47 L-31,47 L-31,36 L-30,36 L-30,30 L-29,30 L-29,27 L-28,27 L-28,24 L-27,24 L-27,21 L-26,21 L-26,19 L-25,19 L-25,18 L-24,18 L-24,16 L-23,16 L-23,14 L-22,14 L-22,13 L-21,13 L-21,12 L-20,12 L-20,11 L-19,11 L-19,10 L-18,10 L-18,9 L-17,9 L-17,8 L-16,8 L-16,7 L-15,7 L-15,6 L-13,6 L-13,5 L-11,5 L-11,4 L-9,4 L-9,3 L-8,3 L-8,2 L-5,2 L-5,1 L0,1 Z " fill="#494949" transform="translate(527,36)"/>
<path d="M0,0 L4,0 L4,13 L5,13 L5,11 L6,11 L6,10 L7,10 L7,9 L8,9 L8,8 L9,8 L9,7 L10,7 L10,6 L11,6 L11,5 L12,5 L12,4 L13,4 L13,3 L15,3 L15,2 L17,2 L17,1 L21,1 L21,0 L31,0 L31,1 L35,1 L35,2 L38,2 L38,3 L39,3 L39,4 L40,4 L40,7 L39,7 L39,10 L38,10 L38,13 L37,13 L37,15 L35,15 L35,14 L32,14 L32,13 L28,13 L28,12 L21,12 L21,13 L18,13 L18,14 L16,14 L16,15 L15,15 L15,16 L14,16 L14,17 L12,17 L12,18 L11,18 L11,20 L10,20 L10,21 L9,21 L9,22 L8,22 L8,24 L7,24 L7,26 L6,26 L6,27 L5,27 L5,29 L4,29 L4,80 L3,80 L3,81 L-8,81 L-8,2 L-6,2 L-6,1 L0,1 Z " fill="#4A4A4A" transform="translate(455,36)"/>
<path d="M0,0 L6,0 L6,1 L8,1 L8,2 L9,2 L9,3 L10,3 L10,11 L9,11 L9,12 L8,12 L8,13 L7,13 L7,14 L5,14 L5,15 L1,15 L1,14 L-1,14 L-1,13 L-2,13 L-2,12 L-3,12 L-3,10 L-4,10 L-4,4 L-3,4 L-3,3 L-2,3 L-2,2 L-1,2 L-1,1 L0,1 Z " fill="#F27961" transform="translate(63,20)"/>
</svg>
